<?xml version="1.0" encoding="UTF-8" standalone="no"?>
<svg xmlns="http://www.w3.org/2000/svg" width="64" height="64" viewBox="0 0 64 64">
  <!-- Base clipboard -->
  <rect x="14" y="4" width="36" height="56" rx="4" ry="4" fill="#f5f5f5" stroke="#333" stroke-width="2"/>
  
  <!-- Clipboard top -->
  <rect x="18" y="4" width="28" height="8" rx="2" ry="2" fill="#4a90e2" stroke="#333" stroke-width="2"/>
  
  <!-- Clip -->
  <rect x="26" y="2" width="12" height="6" rx="3" ry="3" fill="#e6e6e6" stroke="#333" stroke-width="2"/>
  
  <!-- Text line 1 -->
  <rect x="20" y="18" width="24" height="3" rx="1.5" ry="1.5" fill="#4a90e2"/>
  
  <!-- Text line 2 -->
  <rect x="20" y="26" width="18" height="3" rx="1.5" ry="1.5" fill="#4a90e2"/>
  
  <!-- Text line 3 -->
  <rect x="20" y="34" width="24" height="3" rx="1.5" ry="1.5" fill="#4a90e2"/>
  
  <!-- Text line 4 -->
  <rect x="20" y="42" width="12" height="3" rx="1.5" ry="1.5" fill="#4a90e2"/>
  
  <!-- Star (favorite) -->
  <path d="M44,32 L47,39 L54,40 L49,45 L50,52 L44,49 L38,52 L39,45 L34,40 L41,39 Z" fill="#ffcc00" stroke="#333" stroke-width="1"/>
</svg>