<svg xmlns="http://www.w3.org/2000/svg" width="128" height="128" viewBox="0 0 128 128">
  <defs>
    <linearGradient id="gradient" x1="0%" y1="0%" x2="100%" y2="100%">
      <stop offset="0%" style="stop-color:#3498db;stop-opacity:1" />
      <stop offset="100%" style="stop-color:#2c3e50;stop-opacity:1" />
    </linearGradient>
    <filter id="shadow" x="-20%" y="-20%" width="140%" height="140%">
      <feDropShadow dx="2" dy="3" stdDeviation="4" flood-color="#000000" flood-opacity="0.3"/>
    </filter>
  </defs>
  
  <!-- Background -->
  <rect x="12" y="12" width="104" height="104" rx="15" ry="15" fill="url(#gradient)" filter="url(#shadow)"/>
  
  <!-- Clipboard outline -->
  <rect x="36" y="24" width="56" height="80" rx="5" ry="5" fill="#fff" opacity="0.9"/>
  
  <!-- Clipboard top clip -->
  <rect x="52" y="20" width="24" height="8" rx="4" ry="4" fill="#f1c40f"/>
  
  <!-- Lines representing text -->
  <rect x="44" y="40" width="40" height="4" rx="2" ry="2" fill="#95a5a6"/>
  <rect x="44" y="52" width="36" height="4" rx="2" ry="2" fill="#95a5a6"/>
  <rect x="44" y="64" width="32" height="4" rx="2" ry="2" fill="#95a5a6"/>
  
  <!-- Copy symbol -->
  <g transform="translate(76, 82) scale(0.7)">
    <rect x="-20" y="-20" width="30" height="30" rx="4" ry="4" fill="#3498db"/>
    <rect x="-12" y="-12" width="30" height="30" rx="4" ry="4" fill="#2ecc71"/>
    <rect x="-16" y="-16" width="22" height="22" rx="2" ry="2" fill="white"/>
    <rect x="-12" y="-12" width="14" height="3" rx="1" ry="1" fill="#3498db"/>
    <rect x="-12" y="-6" width="12" height="3" rx="1" ry="1" fill="#3498db"/>
    <rect x="-12" y="0" width="10" height="3" rx="1" ry="1" fill="#3498db"/>
  </g>
</svg>
